#!OML:ASF F:\VICON\USERDATA\INSTALL\rory3\rory3.ASF
:FULLY-SPECIFIED
:DEGREES
265
root 0.954719 17.2876 -13.017 11.8845 -6.57878 -9.05538
lowerback -8.68341 3.71612 9.51336
upperback -3.81565 4.13595 1.63785
thorax 1.40614 1.9959 -3.19072
lowerneck -14.8734 -3.5042 -7.21416
upperneck 23.4183 -4.48283 5.49248
head 10.2157 -2.08088 2.56404
rclavicle -2.50127e-014 1.99282e-014
rhumerus -32.0941 7.09264 -89.7256
rradius 37.7995
rwrist 2.53381
rhand -23.9286 -48.4895
rfingers 7.12502
rthumb 2.5463 -78.4541
lclavicle -2.50127e-014 1.99282e-014
lhumerus -46.9511 -0.575575 83.949
lradius 31.2148
lwrist 9.95548
lhand -31.5963 -21.4282
lfingers 7.12502
lthumb -4.85893 8.49604
rfemur -2.96524 11.7089 33.5921
rtibia 18.9375
rfoot -18.0324 -7.66971
rtoes -2.96938
lfemur -43.1819 -4.21316 -7.22769
ltibia 24.369
lfoot -6.17973 8.89719
ltoes -5.88572
266
root 0.969933 17.2828 -12.8576 12.0364 -6.94362 -9.05549
lowerback -9.1001 3.88465 9.64896
upperback -4.2004 4.32123 1.59025
thorax 1.26533 2.06847 -3.28119
lowerneck -13.3174 -3.39431 -7.20866
upperneck 23.1629 -4.42059 5.45797
head 9.8204 -2.08056 2.57143
rclavicle 1.86454e-014 5.31749e-014
rhumerus -33.1098 6.91864 -89.9485
rradius 37.5182
rwrist 2.90632
rhand -24.2354 -48.2888
rfingers 7.12502
rthumb 2.25002 -78.2566
lclavicle 1.86454e-014 5.31749e-014
lhumerus -47.9267 -0.560848 83.9016
lradius 31.1726
lwrist 9.77982
lhand -31.7463 -21.9421
lfingers 7.12502
lthumb -5.00378 7.97881
rfemur -2.44835 11.8424 33.4401
rtibia 18.8063
rfoot -18.0191 -7.45928
rtoes -0.769714
lfemur -42.9986 -4.02241 -7.3516
ltibia 24.7706
lfoot -6.96652 9.14836
ltoes -2.44253
267
root 0.987976 17.2759 -12.6969 12.1351 -7.41262 -8.97884
lowerback -9.05726 4.04765 9.69487
upperback -4.41065 4.55342 1.48888
thorax 1.06092 2.168 -3.39405
lowerneck -13.2652 -3.37932 -7.17444
upperneck 23.3881 -4.42711 5.48059
head 9.89053 -2.07968 2.57605
rclavicle 6.80216e-016 1.09332e-015
rhumerus -33.3971 6.86018 -90.1652
rradius 37.0867
rwrist 3.0681
rhand -24.4628 -47.9851
rfingers 7.12502
rthumb 2.03038 -77.9552
lclavicle 6.80216e-016 1.09332e-015
lhumerus -48.1519 -0.448277 83.7603
lradius 30.9595
lwrist 9.67494
lhand -31.4365 -23.3528
lfingers 7.12502
lthumb -4.70466 6.57497
rfemur -1.90184 12.0427 33.1735
rtibia 18.7669
rfoot -18.0489 -7.27008
rtoes -1.18877
lfemur -42.7038 -3.58533 -7.74676
ltibia 25.2558
lfoot -6.70964 9.30645
ltoes -3.63973
268
root 0.998976 17.2762 -12.5545 12.252 -7.58431 -8.78611
lowerback -9.09782 3.94966 9.50211
upperback -4.13412 4.41668 1.48969
thorax 1.3448 2.12175 -3.29085
lowerneck -14.7951 -3.38651 -7.3969
upperneck 23.8319 -4.34489 5.68839
head 10.3488 -2.01436 2.6904
rclavicle 3.17869e-014 2.64881e-014
rhumerus -32.4913 7.14063 -90.2531
rradius 36.6062
rwrist 3.0616
rhand -24.0353 -48.4353
rfingers 7.12502
rthumb 2.44325 -78.4011
lclavicle 3.17869e-014 2.64881e-014
lhumerus -47.3984 0.071357 83.6429
lradius 30.8767
lwrist 9.63522
lhand -31.2262 -24.3708
lfingers 7.12502
lthumb -4.50155 5.56136
rfemur -1.5625 12.2189 32.8382
rtibia 18.5967
rfoot -17.9745 -6.63696
rtoes -0.115586
lfemur -42.6157 -3.02885 -8.40838
ltibia 25.865
lfoot -6.176 8.91672
ltoes -5.16103
269
root 1.00629 17.2762 -12.4192 12.4163 -7.46653 -8.66483
lowerback -9.2082 3.89971 9.434
upperback -4.59677 4.37356 1.41882
thorax 0.91355 2.06947 -3.34361
lowerneck -13.5434 -3.24988 -7.51372
upperneck 23.8083 -4.26413 5.88279
head 10.0989 -1.98673 2.80107
rclavicle 2.19657e-014 3.89618e-014
rhumerus -33.4452 6.85169 -90.4945
rradius 36.6169
rwrist 2.98761
rhand -23.5851 -49.2563
rfingers 7.12502
rthumb 2.87806 -79.2166
lclavicle 2.19657e-014 3.89618e-014
lhumerus -48.2897 -0.246387 83.6856
lradius 30.9371
lwrist 9.73547
lhand -31.6323 -23.3806
lfingers 7.12502
lthumb -4.89374 6.54288
rfemur -1.29453 12.249 32.6129
rtibia 18.3957
rfoot -17.907 -5.71155
rtoes 1.22496
lfemur -42.7363 -2.48546 -9.04356
ltibia 26.5167
lfoot -5.094 8.24079
ltoes -5.57763
270
root 1.0259 17.2737 -12.2484 12.4817 -7.9642 -8.52102
lowerback -9.57581 4.04813 9.4987
upperback -4.78789 4.53166 1.32279
thorax 0.945142 2.14111 -3.44348
lowerneck -12.8447 -3.1144 -7.42952
upperneck 23.8241 -4.1098 5.74622
head 9.95301 -1.93511 2.76415
rclavicle 8.28684e-014 2.42517e-014
rhumerus -34.219 6.83156 -90.7328
rradius 36.5413
rwrist 2.80571
rhand -23.7515 -49.1475
rfingers 7.12502
rthumb 2.71736 -79.1099
lclavicle 8.28684e-014 2.42517e-014
lhumerus -48.8049 -0.208442 83.6174
lradius 30.8326
lwrist 9.72461
lhand -32.0746 -23.8589
lfingers 7.12502
lthumb -5.32073 6.05435
rfemur -0.506547 12.4639 32.2321
rtibia 18.1383
rfoot -17.757 -5.56989
rtoes -3.38016
lfemur -42.5655 -2.0516 -9.56362
ltibia 27.1988
lfoot -3.9145 8.33562
ltoes -5.32645
271
root 1.03922 17.2755 -12.0975 12.6072 -7.98598 -8.16642
lowerback -9.86202 3.91426 9.21221
upperback -4.49118 4.32818 1.27153
thorax 1.37511 2.06853 -3.33618
lowerneck -14.4782 -3.09983 -7.27677
upperneck 24.3456 -3.97814 5.54621
head 10.4399 -1.85904 2.67924
rclavicle 4.00955e-014 -1.41634e-014
rhumerus -33.5107 7.00609 -90.8112
rradius 35.9915
rwrist 2.93885
rhand -24.1207 -48.3405
rfingers 7.12502
rthumb 2.36076 -78.3072
lclavicle 4.00955e-014 -1.41634e-014
lhumerus -47.9716 0.365413 83.4452
lradius 30.5475
lwrist 9.58803
lhand -31.8839 -28.5401
lfingers 7.12502
lthumb -5.13662 1.37762
rfemur 0.13495 12.6704 31.8311
rtibia 17.7684
rfoot -17.1673 -6.20966
rtoes -8.6251
lfemur -42.7418 -1.89531 -10.2212
ltibia 27.8923
lfoot -3.32104 8.04054
ltoes -4.29938
272
root 1.05412 17.281 -11.9447 12.6367 -7.91036 -7.8235
lowerback -9.93394 3.89033 9.00098
upperback -4.83469 4.33063 1.12005
thorax 1.05124 2.04877 -3.38598
lowerneck -13.9924 -3.05254 -7.12632
upperneck 24.6758 -3.9921 5.52062
head 10.4625 -1.86361 2.65115
rclavicle 8.33964e-015 7.25564e-015
rhumerus -34.2878 6.509 -90.9445
rradius 35.7569
rwrist 3.26012
rhand -24.2266 -47.8019
rfingers 7.12502
rthumb 2.25855 -77.7697
lclavicle 8.33964e-015 7.25564e-015
lhumerus -48.5172 0.121555 83.4708
lradius 30.4191
lwrist 9.56566
lhand -32.2844 -25.1316
lfingers 7.12502
lthumb -5.52336 4.77642
rfemur 0.765686 13.0506 31.4403
rtibia 17.4128
rfoot -16.6613 -5.99083
rtoes -8.38326
lfemur -42.7972 -2.00635 -10.751
ltibia 28.565
lfoot -3.11993 7.70062
ltoes -3.50561
